<?xml version="1.0" encoding="UTF-8"?>
<svg id="_레이어_2" data-name="레이어 2" xmlns="http://www.w3.org/2000/svg" xmlns:xlink="http://www.w3.org/1999/xlink" viewBox="0 0 1733.19 200">
  <defs>
    <style>
      .cls-1 {
        fill: url(#_무제_그라디언트_13);
      }

      .cls-2, .cls-3 {
        fill: none;
      }

      .cls-3 {
        clip-path: url(#clippath);
      }
    </style>
    <clipPath id="clippath">
      <path class="cls-2" d="m280,100l-15.92,31.92c-2.2,4.41-8.11,7.98-13.21,7.98h-23.08c-5.1,0-7.45-3.57-5.25-7.98l15.92-31.92h9.23l-15.92,31.92h23.08l15.92-31.92h9.23Zm-62.08,31.92h4.62l-3.98,7.98h-4.62c-3.61,0-5.84-1.8-6.06-4.41h0s0-.03,0-.03c0-.03,0-.07,0-.1l-.91-11.42h-17.37l-7.96,15.96h-9.23l19.91-39.9h32.31c5.1,0,7.45,3.57,5.25,7.98l-3.98,7.98c-1.56,3.12-4.98,5.83-8.66,7.14l.7,8.82Zm-1.27-15.96l3.98-7.98h-23.08l-3.98,7.98h23.08Zm-32.94-7.98l-15.92,31.92h-9.23l5.57-11.17h-20.14l-7.14,6.63s-.08.07-.11.1l-.03.03h0c-2.82,2.62-6.84,4.41-10.46,4.41h-13.85l15.92-31.92h-23.08l-15.92,31.92h-9.23l15.92-31.92c2.2-4.41,8.11-7.98,13.21-7.98h23.08c5.1,0,7.45,3.57,5.25,7.98l-11.94,23.94h4.62l29.04-26.96c2.83-2.91,7.16-4.96,11.02-4.96h8.17c5.1,0,7.45,3.57,5.25,7.98Zm-9.23,0h-8.17.02s-13.74,12.77-13.74,12.77h15.53l6.37-12.77Zm63.64-55.28l-4.48,8.95c.39.84.76,1.69,1.13,2.54,1.15,2.71,2.15,5.47,3.03,8.25l7.74-2.06c-1.91-6.17-4.41-12.09-7.42-17.68ZM58.1,104.17c-.06-1.39-.1-2.78-.1-4.17,0-12.42,2.43-24.47,7.23-35.81,4.63-10.95,11.27-20.79,19.72-29.25,8.45-8.45,18.29-15.09,29.25-19.72,11.34-4.8,23.38-7.23,35.81-7.23s24.47,2.43,35.81,7.23c6.51,2.75,12.61,6.21,18.28,10.34l7.74-4.17C194.81,8,173.34,0,150,0,94.77,0,50,44.77,50,100c0,2.81.12,5.59.35,8.35l7.75-4.17Zm172.72,39.83c-4.2,7.71-9.48,14.77-15.77,21.05-8.45,8.45-18.29,15.09-29.25,19.72-11.34,4.8-23.38,7.23-35.81,7.23s-24.47-2.43-35.81-7.23c-10.95-4.63-20.79-11.27-29.25-19.72-6.29-6.29-11.57-13.34-15.77-21.05h-9c16.28,33.17,50.38,56,89.82,56s73.54-22.83,89.82-56h-9Zm-199.09-12L241.54,19.02l-29.47,58.94-7.94,15.88,17.16-4.58,63.61-16.96-11.85,23.69h8.94l18-36-80.77,21.54L260,0,0,140h76l4-8H31.73Z"/>
    </clipPath>
    <linearGradient id="_무제_그라디언트_13" data-name="무제 그라디언트 13" x1="302" y1="100" x2="0" y2="100" gradientUnits="userSpaceOnUse">
      <stop offset="0" stop-color="#23a9f2"/>
      <stop offset="1" stop-color="#0078ba"/>
    </linearGradient>
  </defs>
  <g id="_레이어_1-2" data-name="레이어 1">
    <g>
      <g class="cls-3">
        <rect class="cls-1" width="302" height="200"/>
      </g>
      <g>
        <path d="m394.07,59.97v80.03h-16.86l-22.26-35.63c-5.06-7.98-10.23-16.3-14.27-24.05.45,14.16.45,26.98.45,38.78v20.91h-14.61V59.97h16.86l22.37,35.63c4.5,7.31,10.12,16.52,14.16,24.05-.34-14.16-.45-26.98-.45-38.78v-20.91h14.61Z"/>
        <path d="m443.64,140c-.9-1.57-1.35-4.27-1.57-7.08-3.82,5.4-10.12,8.43-18.66,8.43-12.36,0-20.91-6.18-20.91-17.42,0-9.67,5.84-16.52,22.26-18.1l8.77-.79c5.4-.67,8.21-2.36,8.21-6.63,0-4.5-2.36-7.19-10.57-7.19s-11.47,2.14-12.03,9.22h-13.94c.79-12.25,7.98-19.78,26.08-19.78s24.17,6.97,24.17,17.42v30.91c0,4.16.79,8.77,2.36,11.02h-14.16Zm-1.91-22.93v-5.28c-1.46,1.35-3.6,2.02-6.63,2.36l-7.64.9c-7.87.9-10.45,3.71-10.45,8.32s3.26,7.87,9.78,7.87c7.53,0,14.95-4.05,14.95-14.16Z"/>
        <path d="m500.74,81.33v13.04h-3.6c-10.45,0-16.75,5.17-16.75,16.19v29.45h-14.16v-58h13.71v10.34c2.81-6.52,8.32-11.24,17.31-11.24,1.24,0,2.25,0,3.48.22Z"/>
        <path d="m559.97,82v58h-13.71v-8.43c-3.82,5.62-9.89,9.78-18.21,9.78-12.03,0-20.23-7.08-20.23-20.91v-38.44h14.16v36.08c0,7.42,3.6,11.01,10.9,11.01,6.18,0,12.93-4.27,12.93-14.61v-32.48h14.16Z"/>
        <path d="m647.53,122.35h-35.07l-6.18,17.65h-15.62l30.46-80.03h17.76l31.02,80.03h-16.07l-6.29-17.65Zm-4.61-12.93l-3.15-8.65c-2.81-7.31-6.63-17.98-9.89-27.43-3.26,9.44-7.08,20.12-9.78,27.43l-3.03,8.65h25.85Z"/>
        <path d="m721.83,82l-21.58,58h-16.3l-21.47-58h15.17l5.62,15.62c3.03,9.55,6.18,19.9,9.1,29.56,2.92-9.78,6.07-20.01,9.1-29.67l5.62-15.51h14.72Z"/>
        <path d="m727.34,82h14.16v58h-14.16v-58Zm.11-20.79h13.94v13.26h-13.94v-13.26Z"/>
        <path d="m790.95,140c-.9-1.57-1.35-4.27-1.57-7.08-3.82,5.4-10.12,8.43-18.66,8.43-12.36,0-20.91-6.18-20.91-17.42,0-9.67,5.84-16.52,22.26-18.1l8.77-.79c5.4-.67,8.21-2.36,8.21-6.63,0-4.5-2.36-7.19-10.57-7.19s-11.46,2.14-12.03,9.22h-13.94c.79-12.25,7.98-19.78,26.08-19.78s24.17,6.97,24.17,17.42v30.91c0,4.16.79,8.77,2.36,11.02h-14.16Zm-1.91-22.93v-5.28c-1.46,1.35-3.6,2.02-6.63,2.36l-7.64.9c-7.87.9-10.45,3.71-10.45,8.32s3.26,7.87,9.78,7.87c7.53,0,14.95-4.05,14.95-14.16Z"/>
        <path d="m830.52,92.79v31.36c0,3.82,1.91,5.06,6.63,5.06h4.83v10.79c-2.59.23-5.17.45-7.42.45-12.25,0-18.1-4.16-18.1-14.84v-32.82h-8.99v-10.79h8.99v-16.86h14.05v16.86h11.47v10.79h-11.47Z"/>
        <path d="m850.3,82h14.16v58h-14.16v-58Zm.11-20.79h13.94v13.26h-13.94v-13.26Z"/>
        <path d="m873.34,111c0-18.43,11.91-30.35,29.56-30.35s29.45,11.91,29.45,30.35-11.8,30.35-29.45,30.35-29.56-11.91-29.56-30.35Zm44.62,0c0-12.25-5.96-18.66-15.06-18.66s-15.06,6.41-15.06,18.66,5.84,18.66,15.06,18.66,15.06-6.41,15.06-18.66Z"/>
        <path d="m993.38,101.56v38.44h-14.16v-36.08c0-7.42-3.71-11.01-10.9-11.01-6.18,0-12.93,4.27-12.93,14.61v32.48h-14.16v-58h13.71v8.32c3.71-5.51,9.89-9.67,18.1-9.67,12.14,0,20.34,7.08,20.34,20.91Z"/>
        <path d="m1095.78,140h-15.62c-1.46-2.36-2.02-5.62-2.14-9.55l-.34-8.77c-.45-10.23-4.72-13.04-12.81-13.04h-19.78v31.36h-15.17V59.97h36.31c18.43,0,28.21,9.1,28.21,22.59,0,9.22-4.72,16.07-13.38,19.11,8.88,2.81,11.24,8.77,11.58,17.09l.67,11.91c.11,3.48.9,6.97,2.47,9.33Zm-30.46-43.27c8.21,0,13.49-4.27,13.49-12.48s-5.28-11.8-14.05-11.8h-19.67v24.28h20.23Z"/>
        <path d="m1158.5,115.38h-43.39c1.01,10.34,6.86,14.95,15.06,14.95,6.74,0,11.13-3.15,13.26-8.32h13.6c-2.92,11.8-13.04,19.33-26.98,19.33-17.09,0-28.89-11.8-28.89-30.35s11.46-30.35,28.66-30.35,28.66,12.93,28.66,31.36v3.37Zm-43.27-9.89h29.11c-1.12-8.21-6.18-13.83-14.61-13.83-7.53,0-13.15,4.27-14.5,13.83Z"/>
        <path d="m1163.78,121.57h13.83c.79,7.31,4.5,9.89,12.93,9.89s11.46-2.59,11.46-6.97c0-4.16-2.59-6.18-11.35-7.64l-6.63-1.12c-12.48-2.14-19-7.64-19-17.53,0-10.9,8.54-17.54,24.05-17.54,17.87,0,25.18,7.76,25.63,19.67h-13.38c-.34-7.42-4.95-9.55-12.25-9.55-6.86,0-10.12,2.59-10.12,6.74s3.37,5.96,9.67,7.08l7.31,1.12c13.94,2.47,20.12,7.64,20.12,17.65,0,11.69-9.55,18.21-25.74,18.21s-25.63-5.96-26.53-20.01Z"/>
        <path d="m1278.32,115.38h-43.39c1.01,10.34,6.86,14.95,15.06,14.95,6.74,0,11.13-3.15,13.26-8.32h13.6c-2.92,11.8-13.04,19.33-26.98,19.33-17.09,0-28.89-11.8-28.89-30.35s11.47-30.35,28.66-30.35,28.66,12.93,28.66,31.36v3.37Zm-43.28-9.89h29.11c-1.12-8.21-6.18-13.83-14.61-13.83-7.53,0-13.15,4.27-14.5,13.83Z"/>
        <path d="m1324.85,140c-.9-1.57-1.35-4.27-1.57-7.08-3.82,5.4-10.12,8.43-18.66,8.43-12.36,0-20.91-6.18-20.91-17.42,0-9.67,5.84-16.52,22.26-18.1l8.77-.79c5.4-.67,8.21-2.36,8.21-6.63,0-4.5-2.36-7.19-10.57-7.19s-11.47,2.14-12.03,9.22h-13.94c.79-12.25,7.98-19.78,26.08-19.78s24.17,6.97,24.17,17.42v30.91c0,4.16.79,8.77,2.36,11.02h-14.16Zm-1.91-22.93v-5.28c-1.46,1.35-3.6,2.02-6.63,2.36l-7.64.9c-7.87.9-10.45,3.71-10.45,8.32s3.26,7.87,9.78,7.87c7.53,0,14.95-4.05,14.95-14.16Z"/>
        <path d="m1381.95,81.33v13.04h-3.6c-10.45,0-16.75,5.17-16.75,16.19v29.45h-14.16v-58h13.71v10.34c2.81-6.52,8.32-11.24,17.31-11.24,1.24,0,2.25,0,3.48.22Z"/>
        <path d="m1384.42,111c0-18.55,11.35-30.35,28.66-30.35,15.17,0,25.29,8.66,26.98,22.26h-14.16c-1.35-7.19-6.52-10.45-12.81-10.45-8.43,0-14.16,5.85-14.16,18.55s5.96,18.55,14.16,18.55c6.41,0,11.91-3.48,13.04-11.13h14.16c-1.57,14.16-12.36,22.93-27.2,22.93-17.2,0-28.66-11.8-28.66-30.35Z"/>
        <path d="m1500.19,101.56v38.44h-14.16v-36.08c0-7.42-3.71-11.01-10.9-11.01-6.18,0-12.93,4.27-12.93,14.61v32.48h-14.16V59.97h14.16v29.79c3.82-5.28,9.78-9.1,17.65-9.1,12.14,0,20.34,7.08,20.34,20.91Z"/>
        <path d="m1535.6,109.88v-49.91h15.17v50.02c0,12.59,6.86,18.55,18.32,18.55s18.32-5.96,18.32-18.55v-50.02h15.17v49.91c0,20.79-12.93,31.81-33.5,31.81s-33.5-11.01-33.5-31.81Z"/>
        <path d="m1665.87,101.56v38.44h-14.16v-36.08c0-7.42-3.71-11.01-10.9-11.01-6.18,0-12.93,4.27-12.93,14.61v32.48h-14.16v-58h13.71v8.32c3.71-5.51,9.89-9.67,18.1-9.67,12.14,0,20.34,7.08,20.34,20.91Z"/>
        <path d="m1677.33,82h14.16v58h-14.16v-58Zm.11-20.79h13.94v13.26h-13.94v-13.26Z"/>
        <path d="m1721.73,92.79v31.36c0,3.82,1.91,5.06,6.63,5.06h4.83v10.79c-2.59.23-5.17.45-7.42.45-12.25,0-18.1-4.16-18.1-14.84v-32.82h-8.99v-10.79h8.99v-16.86h14.05v16.86h11.47v10.79h-11.47Z"/>
      </g>
    </g>
  </g>
</svg>