<?xml version="1.0" encoding="UTF-8"?>
<svg
        id="_레이어_2"
        data-name="레이어 2"
        xmlns="http://www.w3.org/2000/svg"
        xmlns:xlink="http://www.w3.org/1999/xlink"
        viewBox="0 0 300 200"
>
    <defs>
        <style>
            .cls-1 {
            fill: url(#_무제_그라디언트_13);
            }

            .cls-2, .cls-3 {
            fill: none;
            }

            .cls-3 {
            clip-path: url(#clippath);
            }
        </style>
        <clipPath id="clippath">
            <path class="cls-2"
                  d="m280,100l-15.92,31.92c-2.2,4.41-8.11,7.98-13.21,7.98h-23.08c-5.1,0-7.45-3.57-5.25-7.98l15.92-31.92h9.23l-15.92,31.92h23.08l15.92-31.92h9.23Zm-62.08,31.92h4.62l-3.98,7.98h-4.62c-3.61,0-5.84-1.8-6.06-4.41h0s0-.03,0-.03c0-.03,0-.07,0-.1l-.91-11.42h-17.37l-7.96,15.96h-9.23l19.91-39.9h32.31c5.1,0,7.45,3.57,5.25,7.98l-3.98,7.98c-1.56,3.12-4.98,5.83-8.66,7.14l.7,8.82Zm-1.27-15.96l3.98-7.98h-23.08l-3.98,7.98h23.08Zm-32.94-7.98l-15.92,31.92h-9.23l5.57-11.17h-20.14l-7.14,6.63s-.08.07-.11.1l-.03.03h0c-2.82,2.62-6.84,4.41-10.46,4.41h-13.85l15.92-31.92h-23.08l-15.92,31.92h-9.23l15.92-31.92c2.2-4.41,8.11-7.98,13.21-7.98h23.08c5.1,0,7.45,3.57,5.25,7.98l-11.94,23.94h4.62l29.04-26.96c2.83-2.91,7.16-4.96,11.02-4.96h8.17c5.1,0,7.45,3.57,5.25,7.98Zm-9.23,0h-8.17.02s-13.74,12.77-13.74,12.77h15.53l6.37-12.77Zm63.64-55.28l-4.48,8.95c.39.84.76,1.69,1.13,2.54,1.15,2.71,2.15,5.47,3.03,8.25l7.74-2.06c-1.91-6.17-4.41-12.09-7.42-17.68ZM58.1,104.17c-.06-1.39-.1-2.78-.1-4.17,0-12.42,2.43-24.47,7.23-35.81,4.63-10.95,11.27-20.79,19.72-29.25,8.45-8.45,18.29-15.09,29.25-19.72,11.34-4.8,23.38-7.23,35.81-7.23s24.47,2.43,35.81,7.23c6.51,2.75,12.61,6.21,18.28,10.34l7.74-4.17C194.81,8,173.34,0,150,0,94.77,0,50,44.77,50,100c0,2.81.12,5.59.35,8.35l7.75-4.17Zm172.72,39.83c-4.2,7.71-9.48,14.77-15.77,21.05-8.45,8.45-18.29,15.09-29.25,19.72-11.34,4.8-23.38,7.23-35.81,7.23s-24.47-2.43-35.81-7.23c-10.95-4.63-20.79-11.27-29.25-19.72-6.29-6.29-11.57-13.34-15.77-21.05h-9c16.28,33.17,50.38,56,89.82,56s73.54-22.83,89.82-56h-9Zm-199.09-12L241.54,19.02l-29.47,58.94-7.94,15.88,17.16-4.58,63.61-16.96-11.85,23.69h8.94l18-36-80.77,21.54L260,0,0,140h76l4-8H31.73Z"/>
        </clipPath>
        <linearGradient id="_무제_그라디언트_13" x1="302" y1="100" x2="0" y2="100"
                        gradientUnits="userSpaceOnUse">
            <stop offset="0" stop-color="#23a9f2"/>
            <stop offset="1" stop-color="#0078ba"/>
        </linearGradient>
    </defs>
    <g id="_레이어_1-2">
        <g class="cls-3">
            <rect class="cls-1" width="302" height="200"/>
        </g>
    </g>
</svg>