<?xml version="1.0" encoding="UTF-8"?>
<svg id="_레이어_2" data-name="레이어 2" xmlns="http://www.w3.org/2000/svg" viewBox="0 0 933.5 100">
  <defs>
    <style>
      .cls-1 {
        fill: #00468c;
        stroke-width: 0px;
      }
    </style>
  </defs>
  <g id="_레이어_1-2" data-name="레이어 1">
    <g>
      <path class="cls-1" d="M169.42,43.64c-.54-.73-1.39-1.15-2.28-1.15-.19,0-.39.02-.58.06l-47.93,10.09,25.49-48.43c.23-.41.36-.88.36-1.38C144.48,1.28,143.22.01,141.67,0c0,0-.02,0-.02,0-.04,0-.08,0-.13,0,0,0,0,0,0,0h0c-.55.02-1.06.21-1.48.5L1.25,93.97c-1.03.7-1.49,1.99-1.13,3.18.36,1.19,1.46,2.01,2.71,2.01h135.98c1.03,0,1.98-.56,2.48-1.46l28.33-50.99c.54-.97.46-2.16-.2-3.06Z"/>
      <g>
        <polygon class="cls-1" points="253.04 42.51 240.91 82 212.35 42.51 200.96 42.51 183.43 99.27 190.72 99.27 203.22 58.33 232.65 99.27 242.8 99.27 260.18 42.51 253.04 42.51"/>
        <path class="cls-1" d="M293.43,42.51l-45.3,56.75h8.64l12.25-15.48h29.67l2.93,15.48h16.17l-11.07-56.75h-13.3ZM274.17,77.28l18.77-23.79,4.52,23.79h-23.29Z"/>
        <path class="cls-1" d="M370.95,42.51h-29.79l-17.53,56.75h15.88l6.53-21.27h11.68l9.61,21.27h17.34l-10.1-22.12c11.3-1.82,17.68-6.56,20.03-14.84,1.39-4.91.83-9.08-1.67-12.39-3.66-4.84-11.25-7.4-21.97-7.4ZM378.78,60.41c-2.4,8.43-6.32,11-16.78,11h-14l6.9-22.46h13.92c5.11,0,8.29.92,9.73,2.82,1.31,1.73,1.39,4.56.24,8.64Z"/>
        <path class="cls-1" d="M452.14,75.7c-2.23,7.04-4.5,10.88-7.81,13.25-3.37,2.41-8.14,3.44-15.95,3.44-6.97,0-11.34-1.34-13.36-4.1-2.01-2.73-1.98-7.26.09-13.86l9.76-31.91h-16.46l-9.23,30.41c-2.53,7.98-2.13,14.34,1.21,18.9,3.97,5.43,12.03,8.18,23.95,8.18,11.15,0,18.1-1.51,23.26-5.03,5.12-3.51,8.59-9.1,11.59-18.71l10.19-33.74h-7.21l-10.03,33.19Z"/>
        <path class="cls-1" d="M526.3,42.51l-45.3,56.75h8.64l12.25-15.48h29.67l2.93,15.48h16.17l-11.07-56.75h-13.3ZM507.04,77.28l18.77-23.79,4.52,23.79h-23.29Z"/>
        <polygon class="cls-1" points="574.03 42.51 556.65 99.27 572.74 99.27 590.12 42.51 574.03 42.51"/>
        <path class="cls-1" d="M652.18,62.3c1.39-4.91.83-9.08-1.67-12.39-3.66-4.84-11.25-7.4-21.97-7.4h-29.79l-17.53,56.75h15.88l6.53-21.27h11.68l9.61,21.27h17.34l-10.1-22.12c11.3-1.82,17.68-6.56,20.03-14.84ZM636.38,60.41c-2.4,8.43-6.32,11-16.78,11h-14l6.9-22.46h13.92c5.11,0,8.29.92,9.73,2.82,1.31,1.73,1.39,4.56.24,8.64Z"/>
        <polygon class="cls-1" points="683.18 42.51 667.09 42.51 649.55 99.27 700.05 99.27 702.02 92.76 667.77 92.76 683.18 42.51"/>
        <polygon class="cls-1" points="725.46 42.51 708.08 99.27 724.17 99.27 741.55 42.51 725.46 42.51"/>
        <polygon class="cls-1" points="802.84 42.51 790.71 82 762.15 42.51 750.76 42.51 733.23 99.27 740.52 99.27 753.01 58.33 782.45 99.27 792.6 99.27 809.98 42.51 802.84 42.51"/>
        <polygon class="cls-1" points="833.35 48.95 870.66 48.95 872.77 42.51 819.23 42.51 801.7 99.27 855.8 99.27 857.76 92.76 819.92 92.76 825.87 73.37 859.61 73.37 861.58 66.87 827.84 66.87 833.35 48.95"/>
        <path class="cls-1" d="M932.06,43.78c-6.45-1.13-14.98-1.85-21.72-1.85-8.2,0-16.69.33-23.18,2.72-6.59,2.43-10.53,6.83-12.05,13.46-1.28,4.75-.45,8.61,2.49,11.46,3.29,3.14,8.82,5.26,17.92,6.87,8.43,1.42,13.07,2.42,15.02,3.99l.04.03c1.28.95,1.96,2.14,1.14,4.88v.03c-1.65,5.95-6.84,7.77-22.22,7.77-6.95,0-14.27-.44-23.04-1.39l-1.07-.12-1.88,6.02,1.52.22c8.87,1.29,17.19,1.92,25.42,1.92,10.74,0,18.43-1.04,24.19-3.26,7.09-2.74,11.28-7.27,12.8-13.87,1.35-5.17.4-9.12-2.9-12.07-3.23-2.87-8.41-4.77-17.87-6.54h-.03c-8.56-1.4-12.84-2.54-14.77-3.95l-.06-.04c-.99-.65-1.88-1.68-1.01-4.45l.02-.05c1.45-5.39,6.01-6.95,20.3-6.95,6.06,0,12.62.44,19.49,1.31l1.11.14,1.75-6-1.44-.25Z"/>
      </g>
    </g>
  </g>
</svg>